<svg xmlns="http://www.w3.org/2000/svg" id="Layer_1" data-name="Layer 1" viewBox="0 0 802.19 802.19"><metadata></metadata><defs><style>      .cls-1 {        fill: #5d2826;        stroke-width: 0px;      }    </style></defs><g><path class="cls-1" d="M421.11,366.95c.25-.7.5-1.4.76-2.08,4.16-10.9,9.88-20.17,17.16-27.8,7.28-7.62,15.82-13.49,25.6-17.6s20.29-6.17,31.53-6.17c13.11,0,24.69,3.65,34.76,10.94,10.07,7.28,19.17,18.8,27.29,34.54l14.22-9.39c-4.01-6.55-8.82-12.84-14.45-18.85-5.62-6-12.02-11.31-19.21-15.91-7.18-4.6-15.16-8.28-23.9-11.07-8.75-2.78-18.32-4.18-28.68-4.18s-21.07,1.24-30.65,3.74c-9.58,2.49-18.41,6.01-26.48,10.55-8.07,4.55-15.3,9.98-21.71,16.29-1.84,1.82-3.62,3.7-5.31,5.63,6.78,7.29,12.14,15.28,16.11,23.99,1.1,2.41,2.08,4.87,2.96,7.37Z"></path><g><path class="cls-1" d="M384.72,459.63c1.6,2.25,3.29,4.43,5.07,6.54-1.06,1.09-2.15,2.16-3.27,3.21-9.53,8.94-21.31,16.01-35.34,21.18-6.43,2.38-13.31,4.19-20.6,5.47v.04c-.49.08-.98.16-1.48.24-.3.05-.6.1-.91.15-1.71.27-3.45.51-5.21.72-.35.05-.7.09-1.04.12-1.78.21-3.57.38-5.39.52-.31.03-.63.05-.95.07-1.89.14-3.79.25-5.72.32-.21,0-.43.02-.64.02-2.06.07-4.14.12-6.25.12h-72.61v-14.24h67.48c10.95,0,21.27-1.81,30.94-5.42,9.69-3.61,18.12-9,25.31-16.13,7.19-7.14,12.85-15.92,17.01-26.33.25-.63.49-1.27.73-1.91.72,2.15,1.53,4.28,2.42,6.38,2.83,6.78,6.32,13.09,10.45,18.93Z"></path><path class="cls-1" d="M572.44,452.8c-4,6.55-8.75,12.83-14.22,18.85-5.48,6.01-11.81,11.34-19,15.99-7.19,4.64-15.31,8.34-24.35,11.07-9.04,2.74-19.14,4.11-30.28,4.11-16.14,0-30.79-2.69-43.94-8.08-13.15-5.37-24.42-12.66-33.8-21.85-1.08-1.05-2.13-2.12-3.15-3.21-.26-.28-.5-.58-.76-.86-.79-.87-1.58-1.74-2.33-2.63-.01-.01-.02-.02-.03-.03-1.78-2.11-3.47-4.28-5.06-6.53-4.14-5.84-7.62-12.15-10.46-18.93-.88-2.11-1.67-4.26-2.4-6.42,0,.01-.01.03-.01.04-.2-.57-.37-1.15-.55-1.73-.18-.57-.37-1.14-.54-1.71-.35-1.17-.67-2.35-.98-3.53-.08-.28-.16-.57-.23-.85-.37-1.46-.69-2.94-.99-4.42-.1-.47-.18-.95-.27-1.42-.19-1.04-.37-2.08-.53-3.13-.09-.56-.17-1.12-.24-1.69-.14-.99-.26-1.98-.36-2.98-.06-.57-.12-1.13-.18-1.7-.09-1.06-.16-2.13-.22-3.2-.03-.5-.07-.99-.09-1.49-.07-1.56-.11-3.13-.11-4.71,0-1.02.01-2.04.04-3.05.01-.28.02-.56.03-.83,0-.29.02-.57.03-.86h-.15c-.3-10.85-2.24-20.86-5.82-30.03-3.91-10.02-9.38-18.65-16.42-25.89-7.04-7.23-15.43-12.85-25.16-16.86-9.73-4.02-20.37-6.02-31.91-6.02h-67.62v-14.37h64.84c19.95,0,37.11,1.86,51.49,5.57,14.37,3.72,26.34,9.68,35.93,17.9.67.58,1.34,1.16,1.99,1.75.28.25.54.49.81.74.38.35.76.7,1.14,1.06.25.24.5.48.75.73.38.36.76.72,1.13,1.09.25.25.49.51.74.76.36.36.72.73,1.08,1.1.27.28.53.57.8.86.31.33.63.67.94,1.01.34.38.67.76,1,1.13.22.25.44.5.66.76.47.54.92,1.09,1.38,1.64.06.08.13.16.2.24,1.58,1.94,3.07,3.93,4.47,5.96.04.06.08.11.11.16.42.61.83,1.23,1.24,1.85.06.1.13.2.19.29.38.6.76,1.2,1.13,1.81.07.12.15.24.22.36.37.62.73,1.24,1.09,1.87.06.1.13.21.19.32.37.66.73,1.32,1.09,1.99.04.07.08.15.12.23.38.72.75,1.45,1.12,2.18.01.03.02.05.03.07.38.77.74,1.53,1.09,2.3.62,1.36,1.19,2.73,1.74,4.11.05.12.1.23.14.34.52,1.32,1,2.66,1.45,4,.06.18.13.36.19.53.43,1.32.83,2.65,1.21,3.99.06.21.12.41.17.62.37,1.34.7,2.69,1.01,4.05.04.2.09.41.14.62.3,1.38.57,2.77.81,4.18.03.18.06.36.09.54.24,1.45.44,2.91.62,4.38.01.12.03.24.04.36.18,1.55.32,3.12.43,4.7v.04c.12,1.64.19,3.3.23,4.98h.11c-.05,1.56-.08,3.14-.08,4.74,0,11.94,1.58,22.8,4.75,32.59.03.08.06.15.08.22.42,1.28.85,2.54,1.32,3.78,4.11,10.8,9.76,19.95,16.94,27.43,7.2,7.48,15.68,13.2,25.46,17.17,9.78,3.96,20.39,5.93,31.82,5.93,6.85,0,13.44-1.32,19.8-3.96,6.36-2.64,12.25-6.09,17.68-10.34s10.29-9.04,14.59-14.37c4.31-5.33,7.83-10.73,10.57-16.21l13.78,8.8Z"></path></g></g><path class="cls-1" d="M245.12,320.01s5.83-.35,10.05,2.27c.84.52,1.44,1,1.85,1.43.93.97.16,2.59-1.18,2.48-1.54-.13-3.65-.13-3.27.84.59,1.51,7.87.33,7.87.33,0,0,2.95,0,6.56,3.61,1.8,1.8,1.46,3.33.66,4.4-.81,1.1-2.13,1.72-3.5,1.81-2.71.18-8.64.48-13.11-.11,0,0-1.38,5.12,1.31,7.15,0,0,2.1.66,3.15-.39s3.94-.98,4.92,1.97c.98,2.95,1.31,14.11-.2,14.63s-2.62-4.99-2.62-4.99c0,0-.72,7.94-3.22,11.68s-2.82,10.96-1.64,14.37c1.18,3.41,4.59,6.89,2.36,21-1.78,11.23-4.05,19.72-4.91,22.71-.24.83-.37,1.69-.4,2.55-.11,3.18-.24,11,.84,14.3,1.38,4.2-.39,19.49-.39,19.49,0,0-.33,11.55.13,12.6s1.08,7.19-.85,9.12c0,0-2.23-2.36-1.77-8.6s-.66-13.91-.66-13.91c0,0-1.44-13.26-1.44-18.44s.97-12.99-.57-17c-1.53-4-5.54-17.32-6.32-22.84-.79-5.51-1.57-14.37.59-19.88,1.25-3.19,3.16-6.79,4.55-9.26,1.46-2.6,2.1-5.6,1.66-8.55-.16-1.03-.43-1.93-.89-2.4-1.54-1.54-.42-6.17-.42-6.17,0,0-.48-.8-1.17-.11s-.65,1.57-1.05,1.57-1.64-1.03-.76-3.77,5.56-5.25,5.56-5.25c0,0,.83-4.1.65-5.72-.18-1.61-.4-2.74-.4-2.74,0,0-2.4,1.7-3.26-1.18-.85-2.88-.54-4.8-.54-4.8,0,0-9.81-4.16-12.32-6.67-.45-.45-.75-.93-.95-1.43-.95-2.38.57-5.04,3.07-5.6s6.48-1.08,12.01-.53Z"></path></svg>