<svg xmlns="http://www.w3.org/2000/svg" id="Layer_1" data-name="Layer 1" viewBox="0 0 802.19 802.19"><metadata></metadata><defs><style>      .cls-1 {        fill: #5d2826;        stroke-width: 0px;      }    </style></defs><g><path class="cls-1" d="M86.06,352.04h32.68c10.05,0,18.7.94,25.95,2.81,7.24,1.87,13.28,4.88,18.11,9.02,5.52,4.73,9.67,10.15,12.46,16.26,2.78,6.11,4.18,12.79,4.18,20.03s-1.24,13.38-3.73,19.44c-2.49,6.06-6.14,11.35-10.94,15.86-4.8,4.51-10.74,8.07-17.82,10.68-7.07,2.61-15.17,3.92-24.28,3.92h-36.59v-98.03ZM102.54,442.9h17.52c5.52,0,10.72-.91,15.6-2.74,4.88-1.82,9.13-4.53,12.75-8.13,3.62-3.6,6.48-8.02,8.58-13.27,2.09-5.25,3.14-11.32,3.14-18.22,0-6.06-.99-11.62-2.96-16.67-1.97-5.05-4.73-9.4-8.28-13.05-3.55-3.65-7.77-6.48-12.68-8.5-4.9-2.02-10.27-3.03-16.08-3.03h-17.59v83.61Z"></path><path class="cls-1" d="M212.32,372.97h2.29l2,15.45c1.18-2.27,2.66-4.34,4.44-6.21,1.77-1.87,3.73-3.5,5.88-4.88,2.14-1.38,4.41-2.45,6.8-3.22,2.39-.76,4.82-1.15,7.28-1.15,2.22,0,4.4.3,6.54.89,2.14.59,4.15,1.53,6.03,2.81l-4.73,12.64c-.99-1.08-2.02-1.96-3.1-2.62-1.08-.67-2.19-1.18-3.33-1.55-1.13-.37-2.29-.6-3.47-.7-1.18-.1-2.37-.15-3.55-.15-1.87,0-3.71.27-5.51.81-1.8.54-3.51,1.34-5.14,2.4-1.63,1.06-3.13,2.42-4.51,4.07-1.38,1.65-2.59,3.59-3.62,5.8v52.71h-15.01v-72.97l10.72-4.14Z"></path><path class="cls-1" d="M296.82,451.7c-5.13,0-9.94-.96-14.45-2.88-4.51-1.92-8.44-4.53-11.79-7.84-3.35-3.3-6-7.18-7.95-11.64-1.95-4.46-2.92-9.2-2.92-14.23,0-6.06.89-11.67,2.66-16.82,1.77-5.15,4.29-9.6,7.54-13.34,3.25-3.74,7.16-6.68,11.72-8.8,4.56-2.12,9.65-3.18,15.27-3.18,4.93,0,9.46.88,13.6,2.62,4.14,1.75,7.7,4.09,10.68,7.02,2.98,2.93,5.3,6.32,6.95,10.17,1.65,3.84,2.48,7.86,2.48,12.05h-56.41c0,5.08.65,9.78,1.96,14.12,1.3,4.34,3.14,8.08,5.51,11.24,2.37,3.15,5.17,5.62,8.43,7.39,3.25,1.77,6.83,2.66,10.72,2.66,3.25,0,6.38-.53,9.39-1.59,3.01-1.06,5.73-2.45,8.17-4.18,2.44-1.73,4.52-3.7,6.25-5.91,1.73-2.22,2.93-4.51,3.62-6.88l4.36,1.92c-1.08,3.89-2.83,7.54-5.25,10.94-2.41,3.4-5.24,6.37-8.46,8.91-3.23,2.54-6.74,4.55-10.53,6.03-3.8,1.48-7.64,2.22-11.53,2.22ZM311.76,398.77c0-2.86-.51-5.52-1.52-7.98-1.01-2.46-2.4-4.59-4.18-6.39-1.77-1.8-3.84-3.22-6.21-4.25-2.37-1.03-4.9-1.55-7.61-1.55-2.27,0-4.44.51-6.51,1.52-2.07,1.01-3.92,2.42-5.54,4.21-1.63,1.8-2.97,3.93-4.03,6.39-1.06,2.46-1.69,5.13-1.89,7.98l37.48.07Z"></path><path class="cls-1" d="M400.78,372.96h-9.29c1.96,1.93,3.79,4.32,5.51,7.12l5.54-4.95c-.59-.75-1.18-1.49-1.76-2.17ZM403.76,408.78c-1.26-2.37-2.92-4.45-5-6.25-2.06-1.79-4.42-3.38-7.05-4.76-2.64-1.38-5.33-2.67-8.07-3.84-2.74-1.19-5.42-2.35-8.05-3.48-2.64-1.13-4.99-2.38-7.06-3.74-2.06-1.34-3.73-2.87-4.99-4.54-1.25-1.67-1.89-3.64-1.89-5.92,0-1.14.25-2.24.74-3.28h-9.5c-.17.28-.33.59-.47.88-1.29,2.58-1.92,5.38-1.92,8.38,0,3.21.58,6,1.73,8.4,1.16,2.39,2.69,4.49,4.59,6.32,1.89,1.82,4.04,3.41,6.46,4.76,2.42,1.36,4.88,2.64,7.39,3.84,2.51,1.21,4.98,2.38,7.39,3.51,2.42,1.13,4.58,2.38,6.47,3.73,1.89,1.36,3.42,2.9,4.58,4.62,1.16,1.73,1.75,3.75,1.75,6.06,0,1.44-.35,2.83-1.04,4.19-.7,1.36-1.66,2.55-2.92,3.58-1.25,1.03-2.75,1.85-4.47,2.48-1.72.61-3.6.92-5.62.92-2.17,0-4.17-.26-6.03-.78-1.84-.52-3.64-1.36-5.39-2.51-1.76-1.16-3.47-2.63-5.14-4.43-1.67-1.8-3.42-3.99-5.25-6.54l-6.13,5.54c2.26,2.96,4.58,5.35,6.95,7.17,2.37,1.83,4.73,3.24,7.1,4.26,2.36,1,4.72,1.69,7.05,2.03,2.35.34,4.62.52,6.84.52,4.88,0,9.13-.59,12.72-1.77,3.6-1.19,6.59-2.81,8.97-4.85,2.39-2.04,4.19-4.46,5.37-7.24,1.18-2.78,1.77-5.78,1.77-8.99s-.63-5.92-1.88-8.28Z"></path><path class="cls-1" d="M476.79,432.37c-1.25-2.36-2.91-4.45-4.99-6.24-2.06-1.8-4.42-3.4-7.06-4.78-2.63-1.38-5.32-2.65-8.05-3.84-2.74-1.18-5.42-2.33-8.05-3.47-2.64-1.13-4.99-2.38-7.06-3.74-2.06-1.36-3.73-2.87-4.99-4.54-1.26-1.69-1.89-3.66-1.89-5.92,0-1.38.35-2.69,1.07-3.92.72-1.24,1.7-2.31,2.96-3.22,1.25-.91,2.77-1.63,4.54-2.15,1.78-.52,3.75-.78,5.92-.78,3.99,0,7.75,1.16,11.27,3.44,3.53,2.29,6.71,5.78,9.58,10.46l5.54-4.95c-2.32-2.96-4.5-5.37-6.58-7.21-2.08-1.85-4.15-3.27-6.25-4.26-2.09-.98-4.22-1.65-6.39-1.99-2.17-.34-4.5-.52-7.03-.52-3.74,0-7.19.53-10.34,1.59-3.16,1.06-5.88,2.52-8.17,4.4-2.29,1.88-4.08,4.1-5.37,6.69-1.27,2.59-1.92,5.39-1.92,8.4,0,3.21.58,6,1.75,8.38,1.16,2.39,2.68,4.5,4.58,6.32,1.9,1.83,4.06,3.42,6.47,4.78,2.42,1.36,4.88,2.63,7.39,3.84,2.51,1.2,4.98,2.37,7.39,3.51,2.42,1.13,4.56,2.37,6.46,3.73,1.9,1.36,3.43,2.9,4.59,4.62,1.16,1.72,1.73,3.75,1.73,6.06,0,1.43-.34,2.82-1.03,4.17-.19.38-.41.74-.65,1.1h13.25c.55-.86,1.03-1.77,1.44-2.72,1.18-2.78,1.77-5.78,1.77-8.97s-.63-5.92-1.89-8.29ZM433.29,450.52c-1.67-1.79-3.43-3.97-5.25-6.53l-6.13,5.54c.78,1.01,1.56,1.96,2.35,2.83h10.88c-.62-.57-1.24-1.18-1.85-1.84Z"></path><path class="cls-1" d="M515.72,401.43c0,6.85,1.04,13,3.11,18.44,2.07,5.45,4.92,10.05,8.54,13.82,3.62,3.77,7.9,6.65,12.83,8.65,4.93,2,10.28,2.99,16.04,2.99,3.45,0,6.77-.67,9.98-2,3.2-1.33,6.17-3.07,8.91-5.21,2.74-2.14,5.19-4.56,7.36-7.24,2.17-2.69,3.94-5.41,5.32-8.17l6.95,4.44c-2.02,3.3-4.41,6.47-7.17,9.5-2.76,3.03-5.95,5.72-9.57,8.06-3.62,2.34-7.71,4.2-12.27,5.58-4.56,1.38-9.65,2.07-15.27,2.07-8.13,0-15.51-1.36-22.14-4.07-6.63-2.71-12.31-6.38-17.04-11.02-4.73-4.63-8.39-10.04-10.98-16.23-2.59-6.18-3.88-12.73-3.88-19.63,0-4.58.59-9.06,1.77-13.42,1.18-4.36,2.9-8.45,5.14-12.27,2.24-3.82,4.98-7.32,8.21-10.5,3.23-3.18,6.88-5.91,10.94-8.21,4.07-2.29,8.51-4.07,13.34-5.32,4.83-1.26,9.98-1.89,15.45-1.89s10.04.7,14.45,2.11c4.41,1.4,8.43,3.27,12.05,5.58,3.62,2.32,6.85,4.99,9.68,8.02,2.83,3.03,5.26,6.2,7.28,9.5l-7.17,4.73c-4.09-7.93-8.67-13.74-13.75-17.41-5.08-3.67-10.92-5.51-17.52-5.51-5.67,0-10.97,1.03-15.89,3.1-4.93,2.07-9.23,5.03-12.9,8.87-3.67,3.84-6.56,8.51-8.65,14.01-2.1,5.5-3.14,11.69-3.14,18.59Z"></path><path class="cls-1" d="M652.49,451.7c-5.82,0-11.16-1.01-16.04-3.03-4.88-2.02-9.09-4.77-12.64-8.24-3.55-3.47-6.32-7.54-8.32-12.2-2-4.66-2.99-9.65-2.99-14.97s1-10.8,2.99-15.71c2-4.9,4.77-9.18,8.32-12.83,3.55-3.65,7.76-6.52,12.64-8.61,4.88-2.09,10.23-3.14,16.04-3.14s11.08.96,15.93,2.88c4.85,1.92,9.06,4.56,12.61,7.91,3.55,3.35,6.32,7.28,8.32,11.79,2,4.51,2.99,9.35,2.99,14.53,0,5.72-1,11.1-2.99,16.15-2,5.05-4.77,9.46-8.32,13.23-3.55,3.77-7.75,6.75-12.61,8.95-4.85,2.19-10.16,3.29-15.93,3.29ZM655.37,446.15c2.96,0,5.67-.76,8.13-2.29,2.46-1.53,4.58-3.59,6.36-6.17,1.77-2.59,3.15-5.58,4.14-8.98.99-3.4,1.48-7,1.48-10.79,0-5.47-.47-10.6-1.4-15.38-.94-4.78-2.46-8.95-4.58-12.49-2.12-3.55-4.88-6.35-8.28-8.39-3.4-2.04-7.54-3.07-12.42-3.07-2.51,0-4.95.73-7.32,2.18-2.37,1.45-4.45,3.44-6.25,5.95-1.8,2.51-3.24,5.46-4.33,8.83-1.08,3.38-1.63,6.96-1.63,10.76,0,5.52.58,10.69,1.74,15.52,1.16,4.83,2.86,9.04,5.1,12.64,2.24,3.6,4.98,6.44,8.21,8.54,3.23,2.1,6.91,3.14,11.05,3.14Z"></path></g><circle class="cls-1" cx="708.11" cy="444.34" r="8.03"></circle></svg>