<svg xmlns="http://www.w3.org/2000/svg" id="Layer_1" data-name="Layer 1" viewBox="0 0 802.19 802.19"><metadata></metadata><defs><style>      .cls-1 {        fill: #5d2826;        stroke-width: 0px;      }    </style></defs><g><g><path class="cls-1" d="M232.07,493.88c-2.09-4.57-5.19-8.63-9.33-12.17-3.61-3.1-8.13-5.35-13.55-6.75s-11.9-2.1-19.42-2.1h-24.45v73.36h27.38c6.83,0,12.88-.98,18.18-2.93,5.29-1.96,9.74-4.62,13.33-8,3.6-3.37,6.33-7.33,8.19-11.86,1.86-4.54,2.79-9.39,2.79-14.55,0-5.43-1.04-10.42-3.12-15ZM218.4,522.79c-1.57,3.93-3.7,7.24-6.42,9.93-2.71,2.69-5.89,4.72-9.54,6.09-3.65,1.36-7.54,2.04-11.67,2.04h-13.12v-62.57h13.17c4.35,0,8.36.76,12.04,2.27,3.66,1.51,6.83,3.63,9.48,6.36,2.66,2.73,4.72,5.99,6.2,9.77,1.47,3.78,2.21,7.93,2.21,12.47,0,5.17-.78,9.71-2.35,13.64Z"></path><path class="cls-1" d="M286.18,489.18c-1.61-.44-3.24-.67-4.9-.67-1.84,0-3.66.29-5.45.86-1.79.57-3.48,1.38-5.09,2.41-1.6,1.03-3.07,2.25-4.4,3.65-1.33,1.4-2.43,2.95-3.32,4.65l-1.49-11.57h-1.72l-8.02,3.1v54.61h11.23v-39.45c.78-1.66,1.68-3.1,2.71-4.34,1.04-1.24,2.16-2.25,3.38-3.04,1.22-.8,2.5-1.4,3.84-1.8,1.35-.41,2.72-.61,4.13-.61.88,0,1.77.04,2.65.11.89.07,1.75.25,2.6.53.85.27,1.68.66,2.49,1.16.81.5,1.59,1.15,2.33,1.96l3.54-9.46c-1.41-.96-2.91-1.66-4.51-2.1Z"></path><path class="cls-1" d="M346.57,524.98c-.52,1.77-1.42,3.48-2.72,5.14-1.29,1.66-2.84,3.14-4.67,4.43-1.83,1.29-3.86,2.33-6.11,3.12-2.25.8-4.6,1.19-7.03,1.19-2.91,0-5.59-.66-8.02-1.99-2.44-1.33-4.54-3.17-6.31-5.53-1.77-2.36-3.15-5.17-4.12-8.41-.98-3.25-1.47-6.77-1.47-10.57h42.22c0-3.13-.62-6.14-1.86-9.02-1.23-2.87-2.97-5.41-5.2-7.61-2.23-2.19-4.89-3.94-7.99-5.25-3.1-1.31-6.49-1.97-10.18-1.97-4.21,0-8.02.8-11.43,2.38-3.41,1.59-6.33,3.79-8.77,6.59-2.43,2.8-4.31,6.13-5.64,9.98-1.33,3.86-1.99,8.05-1.99,12.59,0,3.76.73,7.31,2.18,10.65,1.46,3.34,3.44,6.24,5.95,8.72,2.51,2.47,5.45,4.42,8.83,5.86,3.37,1.44,6.98,2.16,10.81,2.16,2.92,0,5.79-.56,8.63-1.66,2.84-1.11,5.47-2.61,7.89-4.51,2.41-1.9,4.52-4.12,6.33-6.67,1.81-2.54,3.12-5.27,3.93-8.19l-3.26-1.43ZM307.59,501.79c.79-1.84,1.8-3.44,3.01-4.78,1.22-1.35,2.6-2.4,4.15-3.16,1.55-.75,3.18-1.13,4.87-1.13,2.03,0,3.93.39,5.7,1.16,1.77.78,3.32,1.84,4.65,3.18,1.33,1.35,2.37,2.94,3.12,4.79.76,1.84,1.14,3.84,1.14,5.97l-28.05-.05c.14-2.14.61-4.13,1.41-5.98Z"></path><path class="cls-1" d="M403.09,515.31c-.95-1.77-2.19-3.32-3.75-4.67-1.54-1.34-3.3-2.54-5.27-3.57-1.98-1.03-3.99-1.99-6.04-2.88s-4.06-1.75-6.03-2.6c-1.97-.85-3.73-1.78-5.28-2.8-1.55-1-2.79-2.14-3.74-3.39-.93-1.26-1.41-2.73-1.41-4.43,0-.86.19-1.68.56-2.46h-7.12c-.12.21-.24.44-.35.66-.96,1.94-1.44,4.03-1.44,6.28,0,2.4.44,4.49,1.3,6.28.87,1.79,2.01,3.36,3.43,4.73,1.42,1.36,3.03,2.55,4.84,3.57,1.81,1.01,3.65,1.98,5.53,2.88,1.88.9,3.73,1.78,5.54,2.63,1.81.84,3.42,1.78,4.84,2.78,1.41,1.02,2.56,2.17,3.43,3.46.86,1.3,1.3,2.81,1.3,4.54,0,1.08-.26,2.12-.77,3.13-.53,1.02-1.25,1.91-2.19,2.69-.94.76-2.06,1.38-3.35,1.85-1.29.46-2.69.69-4.21.69-1.62,0-3.12-.2-4.51-.59-1.37-.38-2.72-1.01-4.03-1.88-1.32-.86-2.6-1.96-3.85-3.31s-2.56-2.99-3.93-4.9l-4.59,4.15c1.7,2.21,3.43,4,5.2,5.36,1.78,1.37,3.54,2.43,5.32,3.19,1.76.75,3.53,1.26,5.27,1.52,1.76.25,3.46.38,5.12.38,3.66,0,6.83-.44,9.52-1.32,2.7-.89,4.94-2.1,6.72-3.63,1.79-1.52,3.13-3.33,4.02-5.42.88-2.08,1.32-4.32,1.32-6.72s-.47-4.43-1.4-6.2ZM400.85,488.51h-6.95c1.46,1.45,2.83,3.23,4.12,5.33l4.15-3.7c-.44-.57-.88-1.12-1.32-1.63Z"></path><path class="cls-1" d="M425.19,546.56c-1.26-1.35-2.57-2.98-3.93-4.89l-4.59,4.14c.58.76,1.16,1.47,1.76,2.12h8.14c-.47-.42-.93-.88-1.38-1.37ZM457.74,532.97c-.93-1.76-2.18-3.32-3.73-4.66-1.55-1.35-3.31-2.55-5.29-3.58-1.97-1.03-3.98-1.98-6.03-2.88-2.04-.88-4.06-1.74-6.02-2.59-1.98-.85-3.74-1.78-5.29-2.8-1.54-1.01-2.79-2.14-3.73-3.4-.95-1.26-1.41-2.73-1.41-4.43,0-1.03.26-2.01.8-2.93.54-.92,1.27-1.73,2.21-2.41.94-.68,2.08-1.21,3.4-1.6,1.33-.39,2.81-.58,4.43-.58,2.98,0,5.8.86,8.44,2.57,2.64,1.71,5.02,4.33,7.16,7.83l4.15-3.71c-1.74-2.21-3.37-4.01-4.92-5.39-1.56-1.38-3.11-2.44-4.68-3.18-1.56-.74-3.16-1.24-4.78-1.5-1.63-.25-3.37-.38-5.26-.38-2.8,0-5.39.39-7.74,1.19-2.37.79-4.41,1.89-6.12,3.29-1.71,1.4-3.05,3.07-4.01,5-.96,1.94-1.44,4.04-1.44,6.29,0,2.4.43,4.49,1.3,6.27.87,1.79,2.01,3.37,3.43,4.73,1.42,1.37,3.03,2.56,4.84,3.58,1.81,1.01,3.66,1.96,5.54,2.87,1.88.9,3.72,1.78,5.53,2.63,1.81.85,3.42,1.78,4.84,2.79,1.42,1.02,2.56,2.17,3.43,3.46.86,1.29,1.3,2.81,1.3,4.54,0,1.07-.26,2.11-.77,3.12-.14.28-.31.56-.49.82h9.92c.42-.64.77-1.32,1.08-2.04.88-2.08,1.32-4.32,1.32-6.71s-.46-4.43-1.41-6.21Z"></path><path class="cls-1" d="M536.83,531.86c-1.62,2.01-3.45,3.82-5.5,5.43-2.05,1.6-4.27,2.9-6.67,3.9-2.4.99-4.89,1.49-7.47,1.49-4.31,0-8.32-.75-12-2.24-3.69-1.49-6.89-3.65-9.6-6.47-2.71-2.83-4.84-6.27-6.39-10.35-1.55-4.08-2.33-8.68-2.33-13.8s.79-9.81,2.36-13.92c1.56-4.11,3.72-7.61,6.47-10.48,2.75-2.88,5.96-5.09,9.65-6.64,3.69-1.55,7.66-2.33,11.9-2.33,4.94,0,9.31,1.38,13.11,4.13,3.8,2.74,7.23,7.09,10.29,13.02l5.37-3.54c-1.51-2.47-3.33-4.84-5.45-7.11-2.12-2.26-4.54-4.26-7.25-6-2.71-1.73-5.72-3.12-9.02-4.18-3.3-1.05-6.91-1.57-10.81-1.57-4.1,0-7.95.47-11.57,1.41-3.61.94-6.94,2.27-9.98,3.98-3.05,1.72-5.78,3.76-8.19,6.14-2.42,2.38-4.47,5-6.14,7.86-1.68,2.86-2.96,5.92-3.85,9.18-.88,3.27-1.33,6.62-1.33,10.05,0,5.16.97,10.06,2.91,14.68,1.94,4.63,4.67,8.68,8.21,12.15,3.54,3.47,7.8,6.21,12.76,8.24,4.96,2.03,10.48,3.05,16.57,3.05,4.2,0,8.01-.52,11.42-1.55,3.41-1.04,6.48-2.43,9.19-4.18s5.1-3.76,7.16-6.03c2.07-2.27,3.86-4.64,5.37-7.11l-5.2-3.32c-1.04,2.07-2.36,4.1-3.99,6.11Z"></path><path class="cls-1" d="M616.81,505.42c-1.5-3.38-3.57-6.32-6.23-8.83-2.65-2.51-5.8-4.48-9.43-5.92s-7.61-2.16-11.92-2.16-8.36.79-12.01,2.36c-3.65,1.56-6.8,3.71-9.46,6.44-2.65,2.73-4.73,5.93-6.22,9.6-1.5,3.67-2.24,7.59-2.24,11.76s.74,7.72,2.24,11.2c1.49,3.49,3.57,6.53,6.22,9.13,2.66,2.6,5.81,4.66,9.46,6.17,3.65,1.51,7.66,2.27,12.01,2.27s8.29-.82,11.92-2.46c3.63-1.65,6.78-3.88,9.43-6.7,2.66-2.82,4.73-6.12,6.23-9.9,1.49-3.78,2.24-7.81,2.24-12.09,0-3.87-.75-7.5-2.24-10.87ZM605.33,530.23c-.74,2.55-1.77,4.79-3.1,6.72-1.33,1.94-2.91,3.48-4.76,4.62-1.84,1.15-3.87,1.72-6.08,1.72-3.1,0-5.86-.78-8.28-2.35-2.41-1.57-4.46-3.7-6.14-6.39-1.68-2.7-2.95-5.85-3.81-9.46-.87-3.62-1.3-7.49-1.3-11.62,0-2.84.4-5.53,1.21-8.05.81-2.53,1.89-4.73,3.24-6.61,1.35-1.89,2.9-3.37,4.67-4.46,1.77-1.09,3.6-1.63,5.48-1.63,3.65,0,6.75.77,9.3,2.3,2.54,1.53,4.61,3.62,6.19,6.28,1.59,2.65,2.73,5.77,3.43,9.35.7,3.57,1.05,7.41,1.05,11.5,0,2.84-.36,5.54-1.1,8.08Z"></path></g><circle class="cls-1" cx="630.86" cy="541.93" r="6.01"></circle></g><g><g><path class="cls-1" d="M421.11,283.55c.25-.7.5-1.4.76-2.08,4.16-10.9,9.88-20.17,17.16-27.8,7.28-7.62,15.82-13.49,25.6-17.6s20.29-6.17,31.53-6.17c13.11,0,24.69,3.65,34.76,10.94,10.07,7.28,19.17,18.8,27.29,34.54l14.22-9.39c-4.01-6.55-8.82-12.84-14.45-18.85-5.62-6-12.02-11.31-19.21-15.91-7.18-4.6-15.16-8.28-23.9-11.07-8.75-2.78-18.32-4.18-28.68-4.18s-21.07,1.24-30.65,3.74c-9.58,2.49-18.41,6.01-26.48,10.55-8.07,4.55-15.3,9.98-21.71,16.29-1.84,1.82-3.62,3.7-5.31,5.63,6.78,7.29,12.14,15.28,16.11,23.99,1.1,2.41,2.08,4.87,2.96,7.37Z"></path><g><path class="cls-1" d="M384.72,376.23c1.6,2.25,3.29,4.43,5.07,6.54-1.06,1.09-2.15,2.16-3.27,3.21-9.53,8.94-21.31,16.01-35.34,21.18-6.43,2.38-13.31,4.19-20.6,5.47v.04c-.49.08-.98.16-1.48.24-.3.05-.6.1-.91.15-1.71.27-3.45.51-5.21.72-.35.05-.7.09-1.04.12-1.78.21-3.57.38-5.39.52-.31.03-.63.05-.95.07-1.89.14-3.79.25-5.72.32-.21,0-.43.02-.64.02-2.06.07-4.14.12-6.25.12h-72.61v-14.24h67.48c10.95,0,21.27-1.81,30.94-5.42,9.69-3.61,18.12-9,25.31-16.13,7.19-7.14,12.85-15.92,17.01-26.33.25-.63.49-1.27.73-1.91.72,2.15,1.53,4.28,2.42,6.38,2.83,6.78,6.32,13.09,10.45,18.93Z"></path><path class="cls-1" d="M572.44,369.4c-4,6.55-8.75,12.83-14.22,18.85-5.48,6.01-11.81,11.34-19,15.99-7.19,4.64-15.31,8.34-24.35,11.07-9.04,2.74-19.14,4.11-30.28,4.11-16.14,0-30.79-2.69-43.94-8.08-13.15-5.37-24.42-12.66-33.8-21.85-1.08-1.05-2.13-2.12-3.15-3.21-.26-.28-.5-.58-.76-.86-.79-.87-1.58-1.74-2.33-2.63-.01-.01-.02-.02-.03-.03-1.78-2.11-3.47-4.28-5.06-6.53-4.14-5.84-7.62-12.15-10.46-18.93-.88-2.11-1.67-4.26-2.4-6.42,0,.01-.01.03-.01.04-.2-.57-.37-1.15-.55-1.73-.18-.57-.37-1.14-.54-1.71-.35-1.17-.67-2.35-.98-3.53-.08-.28-.16-.57-.23-.85-.37-1.46-.69-2.94-.99-4.42-.1-.47-.18-.95-.27-1.42-.19-1.04-.37-2.08-.53-3.13-.09-.56-.17-1.12-.24-1.69-.14-.99-.26-1.98-.36-2.98-.06-.57-.12-1.13-.18-1.7-.09-1.06-.16-2.13-.22-3.2-.03-.5-.07-.99-.09-1.49-.07-1.56-.11-3.13-.11-4.71,0-1.02.01-2.04.04-3.05.01-.28.02-.56.03-.83,0-.29.02-.57.03-.86h-.15c-.3-10.85-2.24-20.86-5.82-30.03-3.91-10.02-9.38-18.65-16.42-25.89-7.04-7.23-15.43-12.85-25.16-16.86-9.73-4.02-20.37-6.02-31.91-6.02h-67.62v-14.37h64.84c19.95,0,37.11,1.86,51.49,5.57,14.37,3.72,26.34,9.68,35.93,17.9.67.58,1.34,1.16,1.99,1.75.28.25.54.49.81.74.38.35.76.7,1.14,1.06.25.24.5.48.75.73.38.36.76.72,1.13,1.09.25.25.49.51.74.76.36.36.72.73,1.08,1.1.27.28.53.57.8.86.31.33.63.67.94,1.01.34.38.67.76,1,1.13.22.25.44.5.66.76.47.54.92,1.09,1.38,1.64.06.08.13.16.2.24,1.58,1.94,3.07,3.93,4.47,5.96.04.06.08.11.11.16.42.61.83,1.23,1.24,1.85.06.1.13.2.19.29.38.6.76,1.2,1.13,1.81.07.12.15.24.22.36.37.62.73,1.24,1.09,1.87.06.1.13.21.19.32.37.66.73,1.32,1.09,1.99.04.07.08.15.12.23.38.72.75,1.45,1.12,2.18.01.03.02.05.03.07.38.77.74,1.53,1.09,2.3.62,1.36,1.19,2.73,1.74,4.11.05.12.1.23.14.34.52,1.32,1,2.66,1.45,4,.06.18.13.36.19.53.43,1.32.83,2.65,1.21,3.99.06.21.12.41.17.62.37,1.34.7,2.69,1.01,4.05.04.2.09.41.14.62.3,1.38.57,2.77.81,4.18.03.18.06.36.09.54.24,1.45.44,2.91.62,4.38.01.12.03.24.04.36.18,1.55.32,3.12.43,4.7v.04c.12,1.64.19,3.3.23,4.98h.11c-.05,1.56-.08,3.14-.08,4.74,0,11.94,1.58,22.8,4.75,32.59.03.08.06.15.08.22.42,1.28.85,2.54,1.32,3.78,4.11,10.8,9.76,19.95,16.94,27.43,7.2,7.48,15.68,13.2,25.46,17.17,9.78,3.96,20.39,5.93,31.82,5.93,6.85,0,13.44-1.32,19.8-3.96,6.36-2.64,12.25-6.09,17.68-10.34s10.29-9.04,14.59-14.37c4.31-5.33,7.83-10.73,10.57-16.21l13.78,8.8Z"></path></g></g><path class="cls-1" d="M245.12,236.61s5.83-.35,10.05,2.27c.84.52,1.44,1,1.85,1.43.93.97.16,2.59-1.18,2.48-1.54-.13-3.65-.13-3.27.84.59,1.51,7.87.33,7.87.33,0,0,2.95,0,6.56,3.61,1.8,1.8,1.46,3.33.66,4.4-.81,1.1-2.13,1.72-3.5,1.81-2.71.18-8.64.48-13.11-.11,0,0-1.38,5.12,1.31,7.15,0,0,2.1.66,3.15-.39s3.94-.98,4.92,1.97c.98,2.95,1.31,14.11-.2,14.63s-2.62-4.99-2.62-4.99c0,0-.72,7.94-3.22,11.68s-2.82,10.96-1.64,14.37c1.18,3.41,4.59,6.89,2.36,21-1.78,11.23-4.05,19.72-4.91,22.71-.24.83-.37,1.69-.4,2.55-.11,3.18-.24,11,.84,14.3,1.38,4.2-.39,19.49-.39,19.49,0,0-.33,11.55.13,12.6s1.08,7.19-.85,9.12c0,0-2.23-2.36-1.77-8.6s-.66-13.91-.66-13.91c0,0-1.44-13.26-1.44-18.44s.97-12.99-.57-17c-1.53-4-5.54-17.32-6.32-22.84-.79-5.51-1.57-14.37.59-19.88,1.25-3.19,3.16-6.79,4.55-9.26,1.46-2.6,2.1-5.6,1.66-8.55-.16-1.03-.43-1.93-.89-2.4-1.54-1.54-.42-6.17-.42-6.17,0,0-.48-.8-1.17-.11s-.65,1.57-1.05,1.57-1.64-1.03-.76-3.77,5.56-5.25,5.56-5.25c0,0,.83-4.1.65-5.72-.18-1.61-.4-2.74-.4-2.74,0,0-2.4,1.7-3.26-1.18-.85-2.88-.54-4.8-.54-4.8,0,0-9.81-4.16-12.32-6.67-.45-.45-.75-.93-.95-1.43-.95-2.38.57-5.04,3.07-5.6s6.48-1.08,12.01-.53Z"></path></g><g><path class="cls-1" d="M278.14,586.22h-2.81v-15.11h11.03v2.35h-8.22v12.75ZM277.9,578.06h7.53v2.37h-7.53v-2.37Z"></path><path class="cls-1" d="M302.67,583.87h8.52v2.35h-11.33v-15.11h11.03v2.35h-8.22v10.4ZM302.46,577.39h7.51v2.31h-7.51v-2.31Z"></path><path class="cls-1" d="M327.92,583.87h8.52v2.35h-11.33v-15.11h11.03v2.35h-8.22v10.4ZM327.71,577.39h7.51v2.31h-7.51v-2.31Z"></path><path class="cls-1" d="M350.37,586.22v-15.11h2.81v12.73h7.9v2.37h-10.7Z"></path><path class="cls-1" d="M390.83,586.22v-15.11h6.22c1.34,0,2.48.21,3.44.65.96.43,1.69,1.05,2.21,1.86.52.81.78,1.76.78,2.87s-.26,2.06-.78,2.87c-.52.8-1.26,1.42-2.21,1.86-.96.43-2.1.65-3.44.65h-4.66l1.25-1.32v5.68h-2.81ZM393.64,580.84l-1.25-1.36h4.53c1.24,0,2.17-.26,2.79-.79s.94-1.26.94-2.21-.31-1.71-.94-2.22-1.56-.78-2.79-.78h-4.53l1.25-1.38v8.74Z"></path><path class="cls-1" d="M417.08,586.22v-15.11h6.22c1.34,0,2.48.21,3.44.65.96.43,1.69,1.05,2.21,1.86.52.81.78,1.76.78,2.87s-.26,2.06-.78,2.86c-.52.8-1.26,1.41-2.21,1.83-.96.43-2.1.64-3.44.64h-4.66l1.25-1.27v5.68h-2.81ZM419.88,580.84l-1.25-1.34h4.53c1.24,0,2.17-.27,2.79-.8.63-.53.94-1.27.94-2.22s-.31-1.71-.94-2.22-1.56-.78-2.79-.78h-4.53l1.25-1.38v8.74ZM426.96,586.22l-3.82-5.48h3l3.84,5.48h-3.02Z"></path><path class="cls-1" d="M446.45,583.87h8.52v2.35h-11.33v-15.11h11.03v2.35h-8.22v10.4ZM446.23,577.39h7.51v2.31h-7.51v-2.31Z"></path><path class="cls-1" d="M471.96,586.22v-12.73h-5.01v-2.37h12.82v2.37h-5.01v12.73h-2.81Z"></path><path class="cls-1" d="M495.95,586.22v-12.73h-5.01v-2.37h12.82v2.37h-5.01v12.73h-2.81Z"></path><path class="cls-1" d="M520.17,586.22v-5.98l.63,1.73-6.56-10.86h3l5.27,8.74h-1.68l5.31-8.74h2.76l-6.56,10.86.65-1.73v5.98h-2.81Z"></path></g></svg>